# xmcd
#
# Track frame offsets:
#	150
#	16045
#	37405
#	54810
#
# Disc length: 1022 seconds
#
# Revision: 0
# Processed by: cddbd v1.5.2PL0 Copyright (c) Steve Scherf et al.
# Submitted via: audiograbber 1.83.01
#
DISCID=2703fc04
DTITLE=Y2K Feat. Marika - Ei Kukaan Toinen [CDM)
DYEAR=1999
DGENRE=Dance
TTITLE0=Ei Kukaan Toinen (Radio Edit)
TTITLE1=Ei Kukaan Toinen (Albumiversio)
TTITLE2=Ei Kukaan Toinen (Martin Lopez Remix)
TTITLE3=Ei Kukaan Toinen (Jungel 2000 Remix)
EXTD=TR.
EXTT0=
EXTT1=
EXTT2=
EXTT3=
PLAYORDER=
